<mxfile host="65bd71144e" modified="2021-01-25T11:36:21.466Z" agent="5.0 (Windows NT 10.0; Win64; x64) AppleWebKit/537.36 (KHTML, like Gecko) Code/1.52.1 Chrome/83.0.4103.122 Electron/9.3.5 Safari/537.36" etag="yhepvzO_oLk_fV0EceC4" version="13.10.0" type="embed">
    <diagram id="67a_td5NpqTCObolOYfH" name="Page-1">
        <mxGraphModel dx="314" dy="605" grid="1" gridSize="10" guides="1" tooltips="1" connect="1" arrows="1" fold="1" page="1" pageScale="1" pageWidth="827" pageHeight="1169" background="#ffffff" math="0" shadow="0">
            <root>
                <mxCell id="0"/>
                <mxCell id="1" parent="0"/>
                <mxCell id="FCJc2zbi1lfGdsWeomKU-1" value="BowlingScoreCard" style="swimlane;fontStyle=1;align=center;verticalAlign=top;childLayout=stackLayout;horizontal=1;startSize=26;horizontalStack=0;resizeParent=1;resizeParentMax=0;resizeLast=0;collapsible=1;marginBottom=0;fillColor=#f5f5f5;strokeColor=#666666;fontColor=#333333;" parent="1" vertex="1">
                    <mxGeometry x="220" y="180" width="210" height="220" as="geometry"/>
                </mxCell>
                <mxCell id="FCJc2zbi1lfGdsWeomKU-2" value="+ score: String&#10;+ valid_score: boolean&#10;+ total_score: int&#10;+ cont_frame: int&#10;+ actual_trie: String" style="text;strokeColor=#666666;fillColor=#f5f5f5;align=left;verticalAlign=top;spacingLeft=4;spacingRight=4;overflow=hidden;rotatable=0;points=[[0,0.5],[1,0.5]];portConstraint=eastwest;fontColor=#333333;" parent="FCJc2zbi1lfGdsWeomKU-1" vertex="1">
                    <mxGeometry y="26" width="210" height="94" as="geometry"/>
                </mxCell>
                <mxCell id="FCJc2zbi1lfGdsWeomKU-3" value="" style="line;strokeWidth=1;fillColor=#f5f5f5;align=left;verticalAlign=middle;spacingTop=-1;spacingLeft=3;spacingRight=3;rotatable=0;labelPosition=right;points=[];portConstraint=eastwest;strokeColor=#666666;fontColor=#333333;" parent="FCJc2zbi1lfGdsWeomKU-1" vertex="1">
                    <mxGeometry y="120" width="210" height="8" as="geometry"/>
                </mxCell>
                <mxCell id="FCJc2zbi1lfGdsWeomKU-4" value="+ BowlingScoreCard(score): String&#10;+ strike():void&#10;+ spare(): void&#10;+ checkValidScore(): void&#10;+ getScoreGame(): int&#10;+ getScoreCard(): String" style="text;strokeColor=#666666;fillColor=#f5f5f5;align=left;verticalAlign=top;spacingLeft=4;spacingRight=4;overflow=hidden;rotatable=0;points=[[0,0.5],[1,0.5]];portConstraint=eastwest;fontColor=#333333;" parent="FCJc2zbi1lfGdsWeomKU-1" vertex="1">
                    <mxGeometry y="128" width="210" height="92" as="geometry"/>
                </mxCell>
                <mxCell id="FCJc2zbi1lfGdsWeomKU-5" value="App" style="swimlane;fontStyle=0;childLayout=stackLayout;horizontal=1;startSize=26;fillColor=#f5f5f5;horizontalStack=0;resizeParent=1;resizeParentMax=0;resizeLast=0;collapsible=1;marginBottom=0;strokeColor=#666666;fontColor=#333333;" parent="1" vertex="1">
                    <mxGeometry x="255" y="30" width="140" height="78" as="geometry"/>
                </mxCell>
                <mxCell id="FCJc2zbi1lfGdsWeomKU-6" value="execute_program(): void" style="text;strokeColor=#666666;fillColor=#f5f5f5;align=left;verticalAlign=top;spacingLeft=4;spacingRight=4;overflow=hidden;rotatable=0;points=[[0,0.5],[1,0.5]];portConstraint=eastwest;fontColor=#333333;" parent="FCJc2zbi1lfGdsWeomKU-5" vertex="1">
                    <mxGeometry y="26" width="140" height="26" as="geometry"/>
                </mxCell>
                <mxCell id="FCJc2zbi1lfGdsWeomKU-7" value="reload_program(): void" style="text;strokeColor=#666666;fillColor=#f5f5f5;align=left;verticalAlign=top;spacingLeft=4;spacingRight=4;overflow=hidden;rotatable=0;points=[[0,0.5],[1,0.5]];portConstraint=eastwest;fontColor=#333333;" parent="FCJc2zbi1lfGdsWeomKU-5" vertex="1">
                    <mxGeometry y="52" width="140" height="26" as="geometry"/>
                </mxCell>
                <mxCell id="FCJc2zbi1lfGdsWeomKU-9" value="Use" style="endArrow=open;endSize=12;dashed=1;html=1;entryX=0.5;entryY=0;entryDx=0;entryDy=0;exitX=0.5;exitY=1;exitDx=0;exitDy=0;exitPerimeter=0;fillColor=#f5f5f5;strokeColor=#666666;" parent="1" source="FCJc2zbi1lfGdsWeomKU-7" target="FCJc2zbi1lfGdsWeomKU-1" edge="1">
                    <mxGeometry width="160" relative="1" as="geometry">
                        <mxPoint x="150" y="140" as="sourcePoint"/>
                        <mxPoint x="310" y="140" as="targetPoint"/>
                    </mxGeometry>
                </mxCell>
            </root>
        </mxGraphModel>
    </diagram>
</mxfile>